<svg width="61" height="49" viewBox="0 0 61 49" fill="none" xmlns="http://www.w3.org/2000/svg">
<path d="M0.103704 18.1575C1.38303 3.04261 12.2706 4.07393 25.7132 5.20795C39.1554 6.34198 52.6953 13.2227 51.4159 28.3376C50.1365 43.4524 36.4333 49.6293 22.9911 48.495C9.5489 47.3611 -1.17558 33.2723 0.103704 18.1575Z" fill="#00CCCD"/>
<path d="M10 25C11.6569 25 13 22.7614 13 20C13 17.2386 11.6569 15 10 15C8.34315 15 7 17.2386 7 20C7 22.7614 8.34315 25 10 25Z" fill="white"/>
<path d="M25 25C26.6569 25 28 22.7614 28 20C28 17.2386 26.6569 15 25 15C23.3431 15 22 17.2386 22 20C22 22.7614 23.3431 25 25 25Z" fill="white"/>
<path d="M57.7663 1.7507C59.169 2.55306 59.6352 4.3534 58.7982 5.73571L49.2773 21.4607C48.5925 22.5916 47.1309 22.9701 45.9833 22.3137C44.8342 21.6564 44.4203 20.2017 45.0511 19.0379L53.8108 2.87638C54.5798 1.4576 56.3655 0.949402 57.7663 1.7507ZM39.6564 27.0688C40.0775 26.335 40.6706 25.8588 41.4348 25.6404C42.2203 25.4163 43.0477 25.5526 43.9164 26.0496C44.7717 26.5389 45.3013 27.1786 45.5048 27.9683C45.7158 28.7451 45.6109 29.5001 45.1897 30.2339C44.7836 30.9414 44.1881 31.4067 43.4026 31.6311C42.6245 31.8417 41.8079 31.7028 40.9525 31.2134C40.0838 30.7162 39.544 30.0796 39.3326 29.3029C39.1425 28.5207 39.2506 27.7762 39.6564 27.0688Z" fill="#CF00A0"/>
</svg>
