<svg width="60" height="43" viewBox="0 0 60 43" fill="none" xmlns="http://www.w3.org/2000/svg">
<path d="M9.71004 23.4056C6.05394 9.74777 17.1423 6.88228 30.787 3.22267C44.4319 -0.436949 55.4659 -3.50483 59.1219 10.153C62.778 23.8108 54.6807 37.8493 41.0359 41.5091C27.3911 45.1687 13.3661 37.0633 9.71004 23.4056Z" fill="#CF00A0"/>
<path d="M14.7708 12.5007C15.2947 13.3824 15.3251 14.5375 14.5994 15.2621C13.863 15.9972 12.6456 16.0066 12.0219 15.1737C11.8635 14.9622 11.7231 14.7572 11.6008 14.5588C11.2131 13.9348 10.952 13.2792 10.8175 12.5919C10.6909 11.8968 10.6316 11.0872 10.6395 10.163C10.6553 9.45207 10.6553 8.79644 10.6395 8.19609C10.6157 7.58789 10.5168 7.0231 10.3428 6.50175C10.1608 5.97251 9.84035 5.47882 9.38141 5.02068C8.88294 4.52305 8.37656 4.18338 7.86224 4.0017C7.34796 3.82003 6.8376 3.80026 6.33122 3.94247C5.83275 4.07675 5.34614 4.38084 4.87139 4.85479C4.47577 5.24975 4.18303 5.69999 3.99311 6.20556C3.79531 6.70319 3.75179 7.22056 3.86255 7.75773C4.06093 8.77812 4.19101 9.94174 3.45535 10.6762L3.3769 10.7545C2.57352 11.5565 1.22264 11.5642 0.683381 10.5653C0.407576 10.0544 0.217155 9.52928 0.112111 8.98995C-0.109435 7.85251 -0.00263231 6.72687 0.432554 5.6131C0.86774 4.49934 1.56404 3.46457 2.52141 2.50876C3.58167 1.45028 4.66961 0.727528 5.78528 0.340464C6.89297 -0.0544592 7.98884 -0.105832 9.07282 0.186448C10.1568 0.462908 11.1815 1.08299 12.1468 2.04668C12.8431 2.74181 13.3376 3.51196 13.6304 4.35716C13.9152 5.19447 14.0814 6.07917 14.1288 7.01126C14.1684 7.93545 14.1723 8.89517 14.1407 9.89047C14.1012 10.7357 14.2396 11.4742 14.5561 12.1062C14.6213 12.238 14.6929 12.3696 14.7708 12.5007ZM16.728 20.5305C16.3008 20.104 16.0871 19.5984 16.0871 19.0139C16.0792 18.4215 16.3285 17.8725 16.8349 17.3669C17.3412 16.8614 17.8912 16.6126 18.4846 16.6205C19.0701 16.6205 19.5765 16.8337 20.0037 17.2603C20.431 17.6868 20.6486 18.1963 20.6565 18.7888C20.6565 19.3733 20.4033 19.9184 19.8969 20.4239C19.3906 20.9294 18.8446 21.1822 18.2591 21.1822C17.6657 21.1743 17.1553 20.9571 16.728 20.5305Z" fill="#00CCCD"/>
<path d="M37 17C38.6569 17 40 15.6569 40 14C40 12.3431 38.6569 11 37 11C35.3431 11 34 12.3431 34 14C34 15.6569 35.3431 17 37 17Z" fill="white"/>
<path d="M51 17C52.6569 17 54 15.6569 54 14C54 12.3431 52.6569 11 51 11C49.3431 11 48 12.3431 48 14C48 15.6569 49.3431 17 51 17Z" fill="white"/>
</svg>
